<mxfile host="app.diagrams.net" modified="2022-06-06T10:50:58.559Z" agent="5.0 (Windows NT 10.0; Win64; x64) AppleWebKit/537.36 (KHTML, like Gecko) Chrome/102.0.0.0 Safari/537.36" etag="bs26rPSPNJIZXj5KqkkG" version="18.2.0" type="github" pages="5">
  <diagram id="ddFmtyWDZV9ygcxnCpho" name="第 1 页">
    <mxGraphModel dx="2462" dy="762" grid="0" gridSize="10" guides="1" tooltips="1" connect="1" arrows="1" fold="1" page="0" pageScale="1" pageWidth="827" pageHeight="1169" math="0" shadow="0">
      <root>
        <mxCell id="0" />
        <mxCell id="1" parent="0" />
        <mxCell id="ep1HAqSf1JTqnNVighRk-2" value="接入方" style="shape=umlLifeline;perimeter=lifelinePerimeter;whiteSpace=wrap;html=1;container=1;collapsible=0;recursiveResize=0;outlineConnect=0;" parent="1" vertex="1">
          <mxGeometry x="104" y="120" width="100" height="500" as="geometry" />
        </mxCell>
        <mxCell id="ep1HAqSf1JTqnNVighRk-5" value="订阅通道状态事件" style="html=1;verticalAlign=bottom;endArrow=block;rounded=0;" parent="ep1HAqSf1JTqnNVighRk-2" target="ep1HAqSf1JTqnNVighRk-3" edge="1">
          <mxGeometry width="80" relative="1" as="geometry">
            <mxPoint x="51" y="100" as="sourcePoint" />
            <mxPoint x="131" y="100" as="targetPoint" />
          </mxGeometry>
        </mxCell>
        <mxCell id="ep1HAqSf1JTqnNVighRk-6" value="" style="html=1;verticalAlign=bottom;endArrow=open;dashed=1;endSize=8;rounded=0;" parent="ep1HAqSf1JTqnNVighRk-2" source="ep1HAqSf1JTqnNVighRk-3" edge="1">
          <mxGeometry relative="1" as="geometry">
            <mxPoint x="136" y="150" as="sourcePoint" />
            <mxPoint x="56" y="150" as="targetPoint" />
          </mxGeometry>
        </mxCell>
        <mxCell id="ep1HAqSf1JTqnNVighRk-3" value="设备平台" style="shape=umlLifeline;perimeter=lifelinePerimeter;whiteSpace=wrap;html=1;container=1;collapsible=0;recursiveResize=0;outlineConnect=0;" parent="1" vertex="1">
          <mxGeometry x="352" y="120" width="100" height="500" as="geometry" />
        </mxCell>
        <mxCell id="ep1HAqSf1JTqnNVighRk-8" value="" style="html=1;points=[];perimeter=orthogonalPerimeter;" parent="ep1HAqSf1JTqnNVighRk-3" vertex="1">
          <mxGeometry x="47" y="294" width="10" height="40" as="geometry" />
        </mxCell>
        <mxCell id="ep1HAqSf1JTqnNVighRk-9" value="映射通道信息" style="edgeStyle=orthogonalEdgeStyle;html=1;align=left;spacingLeft=2;endArrow=block;rounded=0;entryX=1;entryY=0;" parent="ep1HAqSf1JTqnNVighRk-3" target="ep1HAqSf1JTqnNVighRk-8" edge="1">
          <mxGeometry relative="1" as="geometry">
            <mxPoint x="52" y="274" as="sourcePoint" />
            <Array as="points">
              <mxPoint x="82" y="274" />
            </Array>
          </mxGeometry>
        </mxCell>
        <mxCell id="ep1HAqSf1JTqnNVighRk-11" value="" style="html=1;verticalAlign=bottom;endArrow=open;dashed=1;endSize=8;rounded=0;" parent="ep1HAqSf1JTqnNVighRk-3" target="ep1HAqSf1JTqnNVighRk-4" edge="1">
          <mxGeometry relative="1" as="geometry">
            <mxPoint x="51" y="247" as="sourcePoint" />
            <mxPoint x="121" y="247" as="targetPoint" />
          </mxGeometry>
        </mxCell>
        <mxCell id="ep1HAqSf1JTqnNVighRk-4" value="设备" style="shape=umlLifeline;perimeter=lifelinePerimeter;whiteSpace=wrap;html=1;container=1;collapsible=0;recursiveResize=0;outlineConnect=0;" parent="1" vertex="1">
          <mxGeometry x="579" y="120" width="100" height="300" as="geometry" />
        </mxCell>
        <mxCell id="ep1HAqSf1JTqnNVighRk-7" value="设备在线状态推送" style="html=1;verticalAlign=bottom;endArrow=block;rounded=0;" parent="1" target="ep1HAqSf1JTqnNVighRk-3" edge="1">
          <mxGeometry width="80" relative="1" as="geometry">
            <mxPoint x="628" y="330" as="sourcePoint" />
            <mxPoint x="548" y="330" as="targetPoint" />
          </mxGeometry>
        </mxCell>
        <mxCell id="ep1HAqSf1JTqnNVighRk-10" value="推送通道在线状态" style="html=1;verticalAlign=bottom;endArrow=block;rounded=0;" parent="1" edge="1">
          <mxGeometry width="80" relative="1" as="geometry">
            <mxPoint x="402.5" y="501" as="sourcePoint" />
            <mxPoint x="153.5" y="501" as="targetPoint" />
          </mxGeometry>
        </mxCell>
        <mxCell id="ep1HAqSf1JTqnNVighRk-12" value="" style="html=1;verticalAlign=bottom;endArrow=open;dashed=1;endSize=8;rounded=0;" parent="1" target="ep1HAqSf1JTqnNVighRk-3" edge="1">
          <mxGeometry relative="1" as="geometry">
            <mxPoint x="155" y="543" as="sourcePoint" />
            <mxPoint x="380.5" y="543" as="targetPoint" />
          </mxGeometry>
        </mxCell>
        <mxCell id="ep1HAqSf1JTqnNVighRk-13" value="接入方" style="shape=umlLifeline;perimeter=lifelinePerimeter;whiteSpace=wrap;html=1;container=1;collapsible=0;recursiveResize=0;outlineConnect=0;" parent="1" vertex="1">
          <mxGeometry x="-660" y="110" width="100" height="650" as="geometry" />
        </mxCell>
        <mxCell id="ep1HAqSf1JTqnNVighRk-28" value="根据通道信息正确装维" style="html=1;verticalAlign=bottom;endArrow=block;rounded=0;" parent="ep1HAqSf1JTqnNVighRk-13" target="ep1HAqSf1JTqnNVighRk-27" edge="1">
          <mxGeometry width="80" relative="1" as="geometry">
            <mxPoint x="52" y="340" as="sourcePoint" />
            <mxPoint x="132" y="340" as="targetPoint" />
          </mxGeometry>
        </mxCell>
        <mxCell id="ep1HAqSf1JTqnNVighRk-16" value="设备平台" style="shape=umlLifeline;perimeter=lifelinePerimeter;whiteSpace=wrap;html=1;container=1;collapsible=0;recursiveResize=0;outlineConnect=0;" parent="1" vertex="1">
          <mxGeometry x="-412" y="110" width="100" height="650" as="geometry" />
        </mxCell>
        <mxCell id="ep1HAqSf1JTqnNVighRk-25" value="" style="html=1;points=[];perimeter=orthogonalPerimeter;" parent="ep1HAqSf1JTqnNVighRk-16" vertex="1">
          <mxGeometry x="45" y="110" width="10" height="40" as="geometry" />
        </mxCell>
        <mxCell id="ep1HAqSf1JTqnNVighRk-26" value="设备绑定生成通道信息" style="edgeStyle=orthogonalEdgeStyle;html=1;align=left;spacingLeft=2;endArrow=block;rounded=0;entryX=1;entryY=0;" parent="ep1HAqSf1JTqnNVighRk-16" target="ep1HAqSf1JTqnNVighRk-25" edge="1">
          <mxGeometry relative="1" as="geometry">
            <mxPoint x="50" y="90" as="sourcePoint" />
            <Array as="points">
              <mxPoint x="80" y="90" />
            </Array>
          </mxGeometry>
        </mxCell>
        <mxCell id="ep1HAqSf1JTqnNVighRk-32" value="" style="html=1;points=[];perimeter=orthogonalPerimeter;" parent="ep1HAqSf1JTqnNVighRk-16" vertex="1">
          <mxGeometry x="46" y="465" width="10" height="40" as="geometry" />
        </mxCell>
        <mxCell id="ep1HAqSf1JTqnNVighRk-33" value="映射通道信息" style="edgeStyle=orthogonalEdgeStyle;html=1;align=left;spacingLeft=2;endArrow=block;rounded=0;entryX=1;entryY=0;" parent="ep1HAqSf1JTqnNVighRk-16" target="ep1HAqSf1JTqnNVighRk-32" edge="1">
          <mxGeometry relative="1" as="geometry">
            <mxPoint x="51" y="445" as="sourcePoint" />
            <Array as="points">
              <mxPoint x="81" y="445" />
            </Array>
          </mxGeometry>
        </mxCell>
        <mxCell id="ep1HAqSf1JTqnNVighRk-24" value="返回设备详情与通道信息" style="text;html=1;align=center;verticalAlign=middle;resizable=0;points=[];autosize=1;strokeColor=none;fillColor=none;" parent="1" vertex="1">
          <mxGeometry x="-561" y="335" width="150" height="20" as="geometry" />
        </mxCell>
        <mxCell id="ep1HAqSf1JTqnNVighRk-15" value="" style="html=1;verticalAlign=bottom;endArrow=open;dashed=1;endSize=8;rounded=0;" parent="1" edge="1">
          <mxGeometry relative="1" as="geometry">
            <mxPoint x="-367.5" y="357" as="sourcePoint" />
            <mxPoint x="-609" y="357" as="targetPoint" />
          </mxGeometry>
        </mxCell>
        <mxCell id="ep1HAqSf1JTqnNVighRk-14" value="查询设备详情" style="html=1;verticalAlign=bottom;endArrow=block;rounded=0;" parent="1" edge="1">
          <mxGeometry width="80" relative="1" as="geometry">
            <mxPoint x="-609.5" y="309.5" as="sourcePoint" />
            <mxPoint x="-363" y="309.5" as="targetPoint" />
          </mxGeometry>
        </mxCell>
        <mxCell id="ep1HAqSf1JTqnNVighRk-27" value="设备" style="shape=umlLifeline;perimeter=lifelinePerimeter;whiteSpace=wrap;html=1;container=1;collapsible=0;recursiveResize=0;outlineConnect=0;" parent="1" vertex="1">
          <mxGeometry x="-140" y="110" width="100" height="650" as="geometry" />
        </mxCell>
        <mxCell id="ep1HAqSf1JTqnNVighRk-29" value="" style="html=1;verticalAlign=bottom;endArrow=open;dashed=1;endSize=8;rounded=0;" parent="1" edge="1">
          <mxGeometry relative="1" as="geometry">
            <mxPoint x="-91" y="500" as="sourcePoint" />
            <mxPoint x="-361" y="500" as="targetPoint" />
          </mxGeometry>
        </mxCell>
        <mxCell id="ep1HAqSf1JTqnNVighRk-30" value="推送设备在线" style="text;html=1;align=center;verticalAlign=middle;resizable=0;points=[];autosize=1;strokeColor=none;fillColor=none;" parent="1" vertex="1">
          <mxGeometry x="-267" y="480" width="90" height="20" as="geometry" />
        </mxCell>
        <mxCell id="ep1HAqSf1JTqnNVighRk-34" value="推送通道在线状态" style="html=1;verticalAlign=bottom;endArrow=open;dashed=1;endSize=8;rounded=0;" parent="1" target="ep1HAqSf1JTqnNVighRk-13" edge="1">
          <mxGeometry relative="1" as="geometry">
            <mxPoint x="-364" y="670" as="sourcePoint" />
            <mxPoint x="-444" y="670" as="targetPoint" />
          </mxGeometry>
        </mxCell>
      </root>
    </mxGraphModel>
  </diagram>
  <diagram id="2bvIg1F9IMeAqChpOLBs" name="第 2 页">
    <mxGraphModel dx="1546" dy="526" grid="0" gridSize="10" guides="1" tooltips="1" connect="1" arrows="1" fold="1" page="0" pageScale="1" pageWidth="827" pageHeight="1169" math="0" shadow="0">
      <root>
        <mxCell id="0" />
        <mxCell id="1" parent="0" />
        <mxCell id="RGiIuWaeRr-wfEi7vH5l-1" value="接入方" style="shape=umlLifeline;perimeter=lifelinePerimeter;whiteSpace=wrap;html=1;container=1;collapsible=0;recursiveResize=0;outlineConnect=0;" parent="1" vertex="1">
          <mxGeometry x="-43" y="126" width="100" height="440" as="geometry" />
        </mxCell>
        <mxCell id="RGiIuWaeRr-wfEi7vH5l-2" value="查询视频直播地址" style="html=1;verticalAlign=bottom;endArrow=block;rounded=0;" parent="RGiIuWaeRr-wfEi7vH5l-1" target="RGiIuWaeRr-wfEi7vH5l-4" edge="1">
          <mxGeometry width="80" relative="1" as="geometry">
            <mxPoint x="51" y="100" as="sourcePoint" />
            <mxPoint x="131" y="100" as="targetPoint" />
          </mxGeometry>
        </mxCell>
        <mxCell id="RGiIuWaeRr-wfEi7vH5l-13" value="调用直播地址拉流" style="html=1;verticalAlign=bottom;endArrow=block;rounded=0;" parent="RGiIuWaeRr-wfEi7vH5l-1" edge="1">
          <mxGeometry width="80" relative="1" as="geometry">
            <mxPoint x="52" y="277" as="sourcePoint" />
            <mxPoint x="814.5" y="277" as="targetPoint" />
          </mxGeometry>
        </mxCell>
        <mxCell id="RGiIuWaeRr-wfEi7vH5l-14" value="返回视频流数据" style="html=1;verticalAlign=bottom;endArrow=open;dashed=1;endSize=8;rounded=0;" parent="RGiIuWaeRr-wfEi7vH5l-1" edge="1">
          <mxGeometry relative="1" as="geometry">
            <mxPoint x="810.5" y="321" as="sourcePoint" />
            <mxPoint x="50" y="321" as="targetPoint" />
          </mxGeometry>
        </mxCell>
        <mxCell id="RGiIuWaeRr-wfEi7vH5l-4" value="设备平台" style="shape=umlLifeline;perimeter=lifelinePerimeter;whiteSpace=wrap;html=1;container=1;collapsible=0;recursiveResize=0;outlineConnect=0;" parent="1" vertex="1">
          <mxGeometry x="205" y="126" width="100" height="440" as="geometry" />
        </mxCell>
        <mxCell id="RGiIuWaeRr-wfEi7vH5l-8" value="设备" style="shape=umlLifeline;perimeter=lifelinePerimeter;whiteSpace=wrap;html=1;container=1;collapsible=0;recursiveResize=0;outlineConnect=0;" parent="1" vertex="1">
          <mxGeometry x="722" y="126" width="100" height="440" as="geometry" />
        </mxCell>
        <mxCell id="RGiIuWaeRr-wfEi7vH5l-12" value="返回指定协议的直播地址" style="text;html=1;align=center;verticalAlign=middle;resizable=0;points=[];autosize=1;strokeColor=none;fillColor=none;" parent="1" vertex="1">
          <mxGeometry x="58" y="320" width="150" height="20" as="geometry" />
        </mxCell>
        <mxCell id="RGiIuWaeRr-wfEi7vH5l-15" value="南向接入点" style="shape=umlLifeline;perimeter=lifelinePerimeter;whiteSpace=wrap;html=1;container=1;collapsible=0;recursiveResize=0;outlineConnect=0;" parent="1" vertex="1">
          <mxGeometry x="473" y="126" width="100" height="440" as="geometry" />
        </mxCell>
        <mxCell id="RGiIuWaeRr-wfEi7vH5l-16" value="" style="html=1;verticalAlign=bottom;endArrow=block;rounded=0;" parent="1" edge="1">
          <mxGeometry width="80" relative="1" as="geometry">
            <mxPoint x="254.5" y="266" as="sourcePoint" />
            <mxPoint x="522.5" y="266" as="targetPoint" />
          </mxGeometry>
        </mxCell>
        <mxCell id="RGiIuWaeRr-wfEi7vH5l-3" value="" style="html=1;verticalAlign=bottom;endArrow=open;dashed=1;endSize=8;rounded=0;" parent="1" source="RGiIuWaeRr-wfEi7vH5l-15" edge="1">
          <mxGeometry relative="1" as="geometry">
            <mxPoint x="494.5" y="301" as="sourcePoint" />
            <mxPoint x="253" y="301" as="targetPoint" />
          </mxGeometry>
        </mxCell>
        <mxCell id="RGiIuWaeRr-wfEi7vH5l-18" value="" style="html=1;verticalAlign=bottom;endArrow=open;dashed=1;endSize=8;rounded=0;" parent="1" edge="1">
          <mxGeometry relative="1" as="geometry">
            <mxPoint x="253" y="340" as="sourcePoint" />
            <mxPoint x="3" y="340" as="targetPoint" />
          </mxGeometry>
        </mxCell>
      </root>
    </mxGraphModel>
  </diagram>
  <diagram id="FttReu0W3fcPQM_bzfZK" name="第 3 页">
    <mxGraphModel dx="1785" dy="635" grid="0" gridSize="10" guides="1" tooltips="1" connect="1" arrows="1" fold="1" page="0" pageScale="1" pageWidth="827" pageHeight="1169" math="0" shadow="0">
      <root>
        <mxCell id="0" />
        <mxCell id="1" parent="0" />
        <mxCell id="94izqryHAXStzh2GFF1H-1" value="接入方" style="shape=umlLifeline;perimeter=lifelinePerimeter;whiteSpace=wrap;html=1;container=1;collapsible=0;recursiveResize=0;outlineConnect=0;" parent="1" vertex="1">
          <mxGeometry x="-43" y="126" width="100" height="594" as="geometry" />
        </mxCell>
        <mxCell id="94izqryHAXStzh2GFF1H-5" value="设备平台" style="shape=umlLifeline;perimeter=lifelinePerimeter;whiteSpace=wrap;html=1;container=1;collapsible=0;recursiveResize=0;outlineConnect=0;" parent="1" vertex="1">
          <mxGeometry x="205" y="126" width="100" height="594" as="geometry" />
        </mxCell>
        <mxCell id="kjw2peKKIpSBux3ilnq6-3" value="根据文件ID查询文件下载地址" style="html=1;verticalAlign=bottom;endArrow=block;rounded=0;" edge="1" parent="94izqryHAXStzh2GFF1H-5">
          <mxGeometry width="80" relative="1" as="geometry">
            <mxPoint x="52" y="484" as="sourcePoint" />
            <mxPoint x="314.5" y="484" as="targetPoint" />
          </mxGeometry>
        </mxCell>
        <mxCell id="94izqryHAXStzh2GFF1H-6" value="设备" style="shape=umlLifeline;perimeter=lifelinePerimeter;whiteSpace=wrap;html=1;container=1;collapsible=0;recursiveResize=0;outlineConnect=0;" parent="1" vertex="1">
          <mxGeometry x="722" y="126" width="100" height="594" as="geometry" />
        </mxCell>
        <mxCell id="94izqryHAXStzh2GFF1H-8" value="南向接入点" style="shape=umlLifeline;perimeter=lifelinePerimeter;whiteSpace=wrap;html=1;container=1;collapsible=0;recursiveResize=0;outlineConnect=0;" parent="1" vertex="1">
          <mxGeometry x="473" y="126" width="100" height="594" as="geometry" />
        </mxCell>
        <mxCell id="94izqryHAXStzh2GFF1H-17" value="" style="html=1;points=[];perimeter=orthogonalPerimeter;" parent="94izqryHAXStzh2GFF1H-8" vertex="1">
          <mxGeometry x="46" y="187" width="10" height="40" as="geometry" />
        </mxCell>
        <mxCell id="94izqryHAXStzh2GFF1H-18" value="存储到天翼云存" style="edgeStyle=orthogonalEdgeStyle;html=1;align=left;spacingLeft=2;endArrow=block;rounded=0;entryX=1;entryY=0;" parent="94izqryHAXStzh2GFF1H-8" target="94izqryHAXStzh2GFF1H-17" edge="1">
          <mxGeometry relative="1" as="geometry">
            <mxPoint x="51" y="167" as="sourcePoint" />
            <Array as="points">
              <mxPoint x="81" y="167" />
            </Array>
          </mxGeometry>
        </mxCell>
        <mxCell id="94izqryHAXStzh2GFF1H-9" value="" style="html=1;verticalAlign=bottom;endArrow=block;rounded=0;" parent="1" edge="1">
          <mxGeometry width="80" relative="1" as="geometry">
            <mxPoint x="254.5" y="404" as="sourcePoint" />
            <mxPoint x="522.5" y="404" as="targetPoint" />
          </mxGeometry>
        </mxCell>
        <mxCell id="94izqryHAXStzh2GFF1H-10" value="" style="html=1;verticalAlign=bottom;endArrow=open;dashed=1;endSize=8;rounded=0;" parent="1" edge="1">
          <mxGeometry relative="1" as="geometry">
            <mxPoint x="522.5" y="441" as="sourcePoint" />
            <mxPoint x="253" y="441" as="targetPoint" />
          </mxGeometry>
        </mxCell>
        <mxCell id="94izqryHAXStzh2GFF1H-11" value="" style="html=1;verticalAlign=bottom;endArrow=open;dashed=1;endSize=8;rounded=0;" parent="1" edge="1">
          <mxGeometry relative="1" as="geometry">
            <mxPoint x="253" y="493" as="sourcePoint" />
            <mxPoint x="3" y="493" as="targetPoint" />
          </mxGeometry>
        </mxCell>
        <mxCell id="94izqryHAXStzh2GFF1H-12" value="" style="html=1;verticalAlign=bottom;endArrow=block;rounded=0;" parent="1" edge="1">
          <mxGeometry width="80" relative="1" as="geometry">
            <mxPoint x="640" y="225" as="sourcePoint" />
            <mxPoint x="522.5" y="225" as="targetPoint" />
            <Array as="points">
              <mxPoint x="770" y="225" />
            </Array>
          </mxGeometry>
        </mxCell>
        <mxCell id="94izqryHAXStzh2GFF1H-13" value="&lt;span style=&quot;font-size: 11px; background-color: rgb(255, 255, 255);&quot;&gt;推送录像视频流数据&lt;/span&gt;" style="text;html=1;align=center;verticalAlign=middle;resizable=0;points=[];autosize=1;strokeColor=none;fillColor=none;" parent="1" vertex="1">
          <mxGeometry x="595" y="202" width="120" height="20" as="geometry" />
        </mxCell>
        <mxCell id="94izqryHAXStzh2GFF1H-2" value="查询视频云回看" style="html=1;verticalAlign=bottom;endArrow=block;rounded=0;" parent="1" edge="1">
          <mxGeometry width="80" relative="1" as="geometry">
            <mxPoint x="8" y="362" as="sourcePoint" />
            <mxPoint x="254.5" y="362" as="targetPoint" />
          </mxGeometry>
        </mxCell>
        <mxCell id="94izqryHAXStzh2GFF1H-15" value="查询视频云回看" style="text;html=1;align=center;verticalAlign=middle;resizable=0;points=[];autosize=1;strokeColor=none;fillColor=none;" parent="1" vertex="1">
          <mxGeometry x="335" y="379" width="100" height="20" as="geometry" />
        </mxCell>
        <mxCell id="94izqryHAXStzh2GFF1H-16" value="返回视频云回看文件列表与类别" style="text;html=1;align=center;verticalAlign=middle;resizable=0;points=[];autosize=1;strokeColor=none;fillColor=none;" parent="1" vertex="1">
          <mxGeometry x="40" y="465" width="180" height="20" as="geometry" />
        </mxCell>
        <mxCell id="kjw2peKKIpSBux3ilnq6-1" value="查询云回看文件下载地址" style="html=1;verticalAlign=bottom;endArrow=block;rounded=0;" edge="1" parent="1">
          <mxGeometry width="80" relative="1" as="geometry">
            <mxPoint x="8" y="567" as="sourcePoint" />
            <mxPoint x="254.5" y="567" as="targetPoint" />
          </mxGeometry>
        </mxCell>
        <mxCell id="kjw2peKKIpSBux3ilnq6-4" value="" style="html=1;verticalAlign=bottom;endArrow=open;dashed=1;endSize=8;rounded=0;" edge="1" parent="1">
          <mxGeometry relative="1" as="geometry">
            <mxPoint x="520" y="653" as="sourcePoint" />
            <mxPoint x="254.5" y="653" as="targetPoint" />
          </mxGeometry>
        </mxCell>
        <mxCell id="kjw2peKKIpSBux3ilnq6-5" value="返回文件下载地址" style="html=1;verticalAlign=bottom;endArrow=open;dashed=1;endSize=8;rounded=0;" edge="1" parent="1" target="94izqryHAXStzh2GFF1H-1">
          <mxGeometry relative="1" as="geometry">
            <mxPoint x="251" y="690" as="sourcePoint" />
            <mxPoint x="171" y="690" as="targetPoint" />
          </mxGeometry>
        </mxCell>
      </root>
    </mxGraphModel>
  </diagram>
  <diagram id="cruSKGUq9uHP6692BaSl" name="第 4 页">
    <mxGraphModel dx="1546" dy="526" grid="0" gridSize="10" guides="1" tooltips="1" connect="1" arrows="1" fold="1" page="0" pageScale="1" pageWidth="827" pageHeight="1169" math="0" shadow="0">
      <root>
        <mxCell id="0" />
        <mxCell id="1" parent="0" />
        <mxCell id="YhppmN_AI7bRSGO6kO0m-1" value="接入方" style="shape=umlLifeline;perimeter=lifelinePerimeter;whiteSpace=wrap;html=1;container=1;collapsible=0;recursiveResize=0;outlineConnect=0;" parent="1" vertex="1">
          <mxGeometry x="-43" y="126" width="100" height="440" as="geometry" />
        </mxCell>
        <mxCell id="YhppmN_AI7bRSGO6kO0m-18" value="订阅AI告警事件" style="html=1;verticalAlign=bottom;endArrow=block;rounded=0;" parent="YhppmN_AI7bRSGO6kO0m-1" target="YhppmN_AI7bRSGO6kO0m-2" edge="1">
          <mxGeometry width="80" relative="1" as="geometry">
            <mxPoint x="52" y="94" as="sourcePoint" />
            <mxPoint x="132" y="94" as="targetPoint" />
          </mxGeometry>
        </mxCell>
        <mxCell id="YhppmN_AI7bRSGO6kO0m-2" value="设备平台" style="shape=umlLifeline;perimeter=lifelinePerimeter;whiteSpace=wrap;html=1;container=1;collapsible=0;recursiveResize=0;outlineConnect=0;" parent="1" vertex="1">
          <mxGeometry x="205" y="126" width="100" height="440" as="geometry" />
        </mxCell>
        <mxCell id="YhppmN_AI7bRSGO6kO0m-3" value="设备" style="shape=umlLifeline;perimeter=lifelinePerimeter;whiteSpace=wrap;html=1;container=1;collapsible=0;recursiveResize=0;outlineConnect=0;" parent="1" vertex="1">
          <mxGeometry x="722" y="126" width="100" height="440" as="geometry" />
        </mxCell>
        <mxCell id="YhppmN_AI7bRSGO6kO0m-4" value="南向接入点" style="shape=umlLifeline;perimeter=lifelinePerimeter;whiteSpace=wrap;html=1;container=1;collapsible=0;recursiveResize=0;outlineConnect=0;" parent="1" vertex="1">
          <mxGeometry x="473" y="126" width="100" height="440" as="geometry" />
        </mxCell>
        <mxCell id="YhppmN_AI7bRSGO6kO0m-10" value="" style="html=1;verticalAlign=bottom;endArrow=block;rounded=0;" parent="1" edge="1">
          <mxGeometry width="80" relative="1" as="geometry">
            <mxPoint x="640" y="299" as="sourcePoint" />
            <mxPoint x="522.5" y="299" as="targetPoint" />
            <Array as="points">
              <mxPoint x="770" y="299" />
            </Array>
          </mxGeometry>
        </mxCell>
        <mxCell id="YhppmN_AI7bRSGO6kO0m-11" value="&lt;span style=&quot;font-size: 11px; background-color: rgb(255, 255, 255);&quot;&gt;设备触发事件告警&lt;/span&gt;" style="text;html=1;align=center;verticalAlign=middle;resizable=0;points=[];autosize=1;strokeColor=none;fillColor=none;" parent="1" vertex="1">
          <mxGeometry x="599" y="280" width="110" height="20" as="geometry" />
        </mxCell>
        <mxCell id="YhppmN_AI7bRSGO6kO0m-15" value="推送告警消息" style="html=1;verticalAlign=bottom;endArrow=block;rounded=0;" parent="1" edge="1">
          <mxGeometry width="80" relative="1" as="geometry">
            <mxPoint x="522" y="358" as="sourcePoint" />
            <mxPoint x="254.5" y="358" as="targetPoint" />
          </mxGeometry>
        </mxCell>
        <mxCell id="YhppmN_AI7bRSGO6kO0m-17" value="推送AI告警" style="html=1;verticalAlign=bottom;endArrow=block;rounded=0;" parent="1" edge="1">
          <mxGeometry width="80" relative="1" as="geometry">
            <mxPoint x="254.5" y="408" as="sourcePoint" />
            <mxPoint x="6.5" y="408" as="targetPoint" />
          </mxGeometry>
        </mxCell>
        <mxCell id="YhppmN_AI7bRSGO6kO0m-19" value="" style="html=1;verticalAlign=bottom;endArrow=open;dashed=1;endSize=8;rounded=0;entryX=0.54;entryY=0.289;entryDx=0;entryDy=0;entryPerimeter=0;" parent="1" edge="1">
          <mxGeometry relative="1" as="geometry">
            <mxPoint x="251.5" y="263.1600000000001" as="sourcePoint" />
            <mxPoint x="8" y="263.1600000000001" as="targetPoint" />
          </mxGeometry>
        </mxCell>
        <mxCell id="YhppmN_AI7bRSGO6kO0m-20" value="订阅成功" style="text;html=1;align=center;verticalAlign=middle;resizable=0;points=[];autosize=1;strokeColor=none;fillColor=none;" parent="1" vertex="1">
          <mxGeometry x="98" y="240" width="60" height="20" as="geometry" />
        </mxCell>
        <mxCell id="YhppmN_AI7bRSGO6kO0m-21" value="" style="html=1;verticalAlign=bottom;endArrow=open;dashed=1;endSize=8;rounded=0;" parent="1" edge="1">
          <mxGeometry relative="1" as="geometry">
            <mxPoint x="722" y="1160" as="sourcePoint" />
            <mxPoint x="970" y="1160" as="targetPoint" />
            <Array as="points">
              <mxPoint x="885.5" y="1160" />
            </Array>
          </mxGeometry>
        </mxCell>
      </root>
    </mxGraphModel>
  </diagram>
  <diagram id="7E-oITKhAx6KvHumO4JR" name="第 5 页">
    <mxGraphModel dx="3201" dy="1089" grid="1" gridSize="10" guides="1" tooltips="1" connect="1" arrows="1" fold="1" page="1" pageScale="1" pageWidth="827" pageHeight="1169" math="0" shadow="0">
      <root>
        <mxCell id="0" />
        <mxCell id="1" parent="0" />
        <mxCell id="oZ41LeXlBQl8SFPvaIzU-1" value="AI视联装维（乡村）" style="shape=umlLifeline;perimeter=lifelinePerimeter;whiteSpace=wrap;html=1;container=1;collapsible=0;recursiveResize=0;outlineConnect=0;" vertex="1" parent="1">
          <mxGeometry x="120" y="120" width="100" height="960" as="geometry" />
        </mxCell>
        <mxCell id="oZ41LeXlBQl8SFPvaIzU-10" value="查询乡村区域信息" style="html=1;verticalAlign=bottom;endArrow=block;rounded=0;" edge="1" parent="oZ41LeXlBQl8SFPvaIzU-1" target="oZ41LeXlBQl8SFPvaIzU-2">
          <mxGeometry width="80" relative="1" as="geometry">
            <mxPoint x="50" y="230" as="sourcePoint" />
            <mxPoint x="130" y="230" as="targetPoint" />
          </mxGeometry>
        </mxCell>
        <mxCell id="oZ41LeXlBQl8SFPvaIzU-11" value="" style="html=1;verticalAlign=bottom;endArrow=open;dashed=1;endSize=8;rounded=0;" edge="1" parent="oZ41LeXlBQl8SFPvaIzU-1" source="oZ41LeXlBQl8SFPvaIzU-2">
          <mxGeometry relative="1" as="geometry">
            <mxPoint x="130" y="272" as="sourcePoint" />
            <mxPoint x="50" y="272" as="targetPoint" />
          </mxGeometry>
        </mxCell>
        <mxCell id="oZ41LeXlBQl8SFPvaIzU-28" value="" style="html=1;points=[];perimeter=orthogonalPerimeter;" vertex="1" parent="oZ41LeXlBQl8SFPvaIzU-1">
          <mxGeometry x="45" y="761" width="10" height="40" as="geometry" />
        </mxCell>
        <mxCell id="oZ41LeXlBQl8SFPvaIzU-29" value="设备绑定关系入库" style="edgeStyle=orthogonalEdgeStyle;html=1;align=left;spacingLeft=2;endArrow=block;rounded=0;entryX=1;entryY=0;" edge="1" target="oZ41LeXlBQl8SFPvaIzU-28" parent="oZ41LeXlBQl8SFPvaIzU-1">
          <mxGeometry relative="1" as="geometry">
            <mxPoint x="50" y="741" as="sourcePoint" />
            <Array as="points">
              <mxPoint x="80" y="741" />
            </Array>
          </mxGeometry>
        </mxCell>
        <mxCell id="oZ41LeXlBQl8SFPvaIzU-2" value="Paas-Admin服务" style="shape=umlLifeline;perimeter=lifelinePerimeter;whiteSpace=wrap;html=1;container=1;collapsible=0;recursiveResize=0;outlineConnect=0;" vertex="1" parent="1">
          <mxGeometry x="350" y="120" width="100" height="960" as="geometry" />
        </mxCell>
        <mxCell id="oZ41LeXlBQl8SFPvaIzU-3" value="视联网装维页面" style="shape=umlLifeline;perimeter=lifelinePerimeter;whiteSpace=wrap;html=1;container=1;collapsible=0;recursiveResize=0;outlineConnect=0;" vertex="1" parent="1">
          <mxGeometry x="-100" y="120" width="100" height="960" as="geometry" />
        </mxCell>
        <mxCell id="oZ41LeXlBQl8SFPvaIzU-6" value="查询区域信息" style="html=1;verticalAlign=bottom;endArrow=block;rounded=0;" edge="1" parent="oZ41LeXlBQl8SFPvaIzU-3">
          <mxGeometry width="80" relative="1" as="geometry">
            <mxPoint x="50" y="194" as="sourcePoint" />
            <mxPoint x="269.5" y="194" as="targetPoint" />
          </mxGeometry>
        </mxCell>
        <mxCell id="oZ41LeXlBQl8SFPvaIzU-7" value="返回区域信息" style="html=1;verticalAlign=bottom;endArrow=open;dashed=1;endSize=8;rounded=0;" edge="1" parent="oZ41LeXlBQl8SFPvaIzU-3">
          <mxGeometry relative="1" as="geometry">
            <mxPoint x="269.5" y="300" as="sourcePoint" />
            <mxPoint x="50" y="300" as="targetPoint" />
          </mxGeometry>
        </mxCell>
        <mxCell id="oZ41LeXlBQl8SFPvaIzU-14" value="设备挂靠" style="html=1;verticalAlign=bottom;endArrow=block;rounded=0;" edge="1" parent="oZ41LeXlBQl8SFPvaIzU-3" target="oZ41LeXlBQl8SFPvaIzU-1">
          <mxGeometry width="80" relative="1" as="geometry">
            <mxPoint x="50" y="370" as="sourcePoint" />
            <mxPoint x="130" y="370" as="targetPoint" />
          </mxGeometry>
        </mxCell>
        <mxCell id="oZ41LeXlBQl8SFPvaIzU-4" value="单点登录" style="html=1;verticalAlign=bottom;endArrow=block;rounded=0;" edge="1" parent="1" target="oZ41LeXlBQl8SFPvaIzU-1">
          <mxGeometry width="80" relative="1" as="geometry">
            <mxPoint x="-49" y="214" as="sourcePoint" />
            <mxPoint x="31" y="214" as="targetPoint" />
          </mxGeometry>
        </mxCell>
        <mxCell id="oZ41LeXlBQl8SFPvaIzU-5" value="返回AccessToken" style="html=1;verticalAlign=bottom;endArrow=open;dashed=1;endSize=8;rounded=0;" edge="1" parent="1" target="oZ41LeXlBQl8SFPvaIzU-3">
          <mxGeometry relative="1" as="geometry">
            <mxPoint x="169" y="260" as="sourcePoint" />
            <mxPoint x="89" y="260" as="targetPoint" />
          </mxGeometry>
        </mxCell>
        <mxCell id="oZ41LeXlBQl8SFPvaIzU-15" value="PaaS-Device服务" style="shape=umlLifeline;perimeter=lifelinePerimeter;whiteSpace=wrap;html=1;container=1;collapsible=0;recursiveResize=0;outlineConnect=0;" vertex="1" parent="1">
          <mxGeometry x="590" y="120" width="100" height="960" as="geometry" />
        </mxCell>
        <mxCell id="oZ41LeXlBQl8SFPvaIzU-17" value="设备绑定" style="html=1;verticalAlign=bottom;endArrow=block;rounded=0;" edge="1" parent="1">
          <mxGeometry width="80" relative="1" as="geometry">
            <mxPoint x="170" y="759" as="sourcePoint" />
            <mxPoint x="639.5" y="759" as="targetPoint" />
          </mxGeometry>
        </mxCell>
        <mxCell id="oZ41LeXlBQl8SFPvaIzU-20" value="视联网开放平台" style="shape=umlLifeline;perimeter=lifelinePerimeter;whiteSpace=wrap;html=1;container=1;collapsible=0;recursiveResize=0;outlineConnect=0;" vertex="1" parent="1">
          <mxGeometry x="-330" y="120" width="100" height="960" as="geometry" />
        </mxCell>
        <mxCell id="oZ41LeXlBQl8SFPvaIzU-23" value="获取设备信息" style="html=1;verticalAlign=bottom;endArrow=block;rounded=0;" edge="1" parent="oZ41LeXlBQl8SFPvaIzU-20" source="oZ41LeXlBQl8SFPvaIzU-1">
          <mxGeometry width="80" relative="1" as="geometry">
            <mxPoint x="139.66666666666674" y="537" as="sourcePoint" />
            <mxPoint x="50" y="537" as="targetPoint" />
          </mxGeometry>
        </mxCell>
        <mxCell id="oZ41LeXlBQl8SFPvaIzU-21" value="设备级联" style="html=1;verticalAlign=bottom;endArrow=block;rounded=0;" edge="1" parent="1">
          <mxGeometry width="80" relative="1" as="geometry">
            <mxPoint x="169.50000000000045" y="551" as="sourcePoint" />
            <mxPoint x="-280.33333333333326" y="551" as="targetPoint" />
            <Array as="points">
              <mxPoint x="10" y="551" />
            </Array>
          </mxGeometry>
        </mxCell>
        <mxCell id="oZ41LeXlBQl8SFPvaIzU-22" value="" style="html=1;verticalAlign=bottom;endArrow=open;dashed=1;endSize=8;rounded=0;" edge="1" parent="1" source="oZ41LeXlBQl8SFPvaIzU-20">
          <mxGeometry relative="1" as="geometry">
            <mxPoint x="-210" y="600" as="sourcePoint" />
            <mxPoint x="169.50000000000045" y="600" as="targetPoint" />
          </mxGeometry>
        </mxCell>
        <mxCell id="oZ41LeXlBQl8SFPvaIzU-24" value="返回设备信息，如型号" style="html=1;verticalAlign=bottom;endArrow=open;dashed=1;endSize=8;rounded=0;" edge="1" parent="1" source="oZ41LeXlBQl8SFPvaIzU-20">
          <mxGeometry relative="1" as="geometry">
            <mxPoint x="-191" y="720" as="sourcePoint" />
            <mxPoint x="168.5" y="720" as="targetPoint" />
          </mxGeometry>
        </mxCell>
        <mxCell id="oZ41LeXlBQl8SFPvaIzU-25" value="" style="html=1;verticalAlign=bottom;endArrow=open;dashed=1;endSize=8;rounded=0;" edge="1" parent="1">
          <mxGeometry relative="1" as="geometry">
            <mxPoint x="640" y="810" as="sourcePoint" />
            <mxPoint x="169.32352941176487" y="810" as="targetPoint" />
          </mxGeometry>
        </mxCell>
        <mxCell id="oZ41LeXlBQl8SFPvaIzU-26" value="" style="html=1;verticalAlign=bottom;endArrow=open;dashed=1;endSize=8;rounded=0;" edge="1" parent="1">
          <mxGeometry relative="1" as="geometry">
            <mxPoint x="170" y="953" as="sourcePoint" />
            <mxPoint x="-50.18965517241395" y="953" as="targetPoint" />
          </mxGeometry>
        </mxCell>
        <mxCell id="oZ41LeXlBQl8SFPvaIzU-27" value="返回挂靠成功" style="text;html=1;align=center;verticalAlign=middle;resizable=0;points=[];autosize=1;strokeColor=none;fillColor=none;" vertex="1" parent="1">
          <mxGeometry x="15" y="930" width="90" height="20" as="geometry" />
        </mxCell>
      </root>
    </mxGraphModel>
  </diagram>
</mxfile>
